<svg xmlns="http://www.w3.org/2000/svg" viewBox="0 0 720 1600" preserveAspectRatio="none">
<defs><linearGradient id="m" x1="0" x2="1"><stop stop-color="#03161e"/><stop offset=".2" stop-color="#38e8ff"/><stop offset=".42" stop-color="#17637b"/><stop offset=".72" stop-color="#b9fbff"/><stop offset="1" stop-color="#03131b"/></linearGradient><filter id="g"><feGaussianBlur stdDeviation="4" result="b"/><feMerge><feMergeNode in="b"/><feMergeNode in="SourceGraphic"/></feMerge></filter><filter id="s"><feDropShadow dx="0" dy="8" stdDeviation="8" flood-color="#000"/><feDropShadow dx="0" dy="0" stdDeviation="6" flood-color="#00ddff"/></filter></defs>
<g filter="url(#s)"><rect x="12" y="12" width="696" height="1576" rx="28" fill="none" stroke="#02141b" stroke-width="30"/><rect x="15" y="15" width="690" height="1570" rx="25" fill="none" stroke="url(#m)" stroke-width="17"/><path d="M32 210V70h130l34 28h328l34-28h130v140M32 1390v140h130l34-28h328l34 28h130v-140" fill="none" stroke="#73f4ff" stroke-width="5" filter="url(#g)"/>
<g fill="#071b24" stroke="#9df8ff" stroke-width="4"><path d="M4 275l40-34 30 34-30 34zM646 275l30-34 40 34-40 34zM4 1325l40-34 30 34-30 34zM646 1325l30-34 40 34-40 34z"/></g><g fill="#adfbff"><circle cx="26" cy="125" r="7"/><circle cx="694" cy="125" r="7"/><circle cx="26" cy="800" r="7"/><circle cx="694" cy="800" r="7"/><circle cx="26" cy="1475" r="7"/><circle cx="694" cy="1475" r="7"/></g></g></svg>
